<?xml version="1.0" encoding="utf-8"?>
<!-- Generator: Adobe Illustrator 26.0.0, SVG Export Plug-In . SVG Version: 6.00 Build 0)  -->
<svg version="1.1" id="Livello_1" xmlns="http://www.w3.org/2000/svg" xmlns:xlink="http://www.w3.org/1999/xlink" x="0px" y="0px"
	 viewBox="0 0 1050 350" style="enable-background:new 0 0 1050 350;" xml:space="preserve">
<style type="text/css">
	.st0{clip-path:url(#SVGID_00000070114878562103275910000012391370071412979881_);fill:#FFFFFF;}
	.st1{clip-path:url(#SVGID_00000070114878562103275910000012391370071412979881_);fill:#1334C9;}
	.st2{clip-path:url(#SVGID_00000070114878562103275910000012391370071412979881_);}
	.st3{clip-path:url(#SVGID_00000070114878562103275910000012391370071412979881_);fill:#48AD47;}
	.st4{clip-path:url(#SVGID_00000070114878562103275910000012391370071412979881_);fill:#8B8F91;}
</style>
<g>
	<defs>
		<rect id="SVGID_1_" x="15" y="8.6" width="1020" height="332.8"/>
	</defs>
	<clipPath id="SVGID_00000031200753187932598880000001150051991276243373_">
		<use xlink:href="#SVGID_1_"  style="overflow:visible;"/>
	</clipPath>
	<path style="clip-path:url(#SVGID_00000031200753187932598880000001150051991276243373_);fill:#FFFFFF;" d="M797.4,174h-44.7
		c-1.7,0-3.1-1.4-3.1-3.1v-46.7c0-1.7,1.4-3.1,3.1-3.1h44.7c1.7,0,3.1,1.4,3.1,3.1V171C800.5,172.6,799.1,174,797.4,174"/>
	<polygon style="clip-path:url(#SVGID_00000031200753187932598880000001150051991276243373_);fill:#1334C9;" points="141,194 
		160.7,102.1 136.9,102.1 117.2,194 	"/>
	<path style="clip-path:url(#SVGID_00000031200753187932598880000001150051991276243373_);fill:#1334C9;" d="M309.2,194L290,102.1
		h-20.3c-4.6,0-8.4,2.7-10.1,6.7L223.9,194h25l5-13.7h30.5l2.9,13.7H309.2z M260.7,161.5l12.5-34.5l7.2,34.5H260.7z"/>
	<path style="clip-path:url(#SVGID_00000031200753187932598880000001150051991276243373_);fill:#1334C9;" d="M191.8,127.6
		c0.1-3.3,3.2-6.8,10.1-7.7c3.4-0.4,12.8-0.8,23.4,4.1l4.2-19.5c-5.7-2.1-13.1-4.1-22.2-4.1c-23.5,0-40,12.5-40.2,30.4
		c-0.2,13.2,11.8,20.6,20.8,25c9.3,4.5,12.4,7.4,12.3,11.4c-0.1,6.2-7.4,8.9-14.2,9c-11.9,0.2-18.9-3.2-24.4-5.8l-4.3,20.1
		c5.6,2.5,15.8,4.8,26.4,4.9c25,0,41.3-12.3,41.4-31.4C225.2,139.8,191.6,138.4,191.8,127.6"/>
	<path style="clip-path:url(#SVGID_00000031200753187932598880000001150051991276243373_);fill:#1334C9;" d="M101.7,102.1L77,164.7
		l-10-53.2c-1.2-5.9-5.8-9.4-11-9.4H15.6l-0.6,2.7c8.3,1.8,17.7,4.7,23.4,7.8c3.5,1.9,4.5,3.6,5.6,8.1l19,73.3h25.1l38.5-91.9H101.7
		z"/>
	<path style="clip-path:url(#SVGID_00000031200753187932598880000001150051991276243373_);" d="M860.6,154.9
		c-0.5-0.3-1.2-0.2-1.6,0.4c-1.7,2.6-4.7,4.2-7.9,4.1c-6,0-9.7-4.8-9.7-11.6c0-6.8,3.7-11.5,9.7-11.5c3.1-0.1,6.1,1.4,7.8,3.9
		c0.4,0.5,1.1,0.6,1.6,0.3l2.8-1.7c0,0,0,0,0.1,0c0.5-0.4,0.7-1.2,0.3-1.7c-2.9-4.1-7.7-6.4-12.6-6.3c-9.4,0-15.9,6.8-15.9,17
		c0,10.1,6.5,17.1,16,17.1c5.1,0.1,9.9-2.3,12.7-6.6c0,0,0-0.1,0.1-0.1c0.3-0.6,0.1-1.3-0.4-1.6L860.6,154.9z"/>
	<path style="clip-path:url(#SVGID_00000031200753187932598880000001150051991276243373_);" d="M877.3,139.4c-3.2,0-6.3,0.8-9.2,2.3
		c-0.6,0.3-0.8,1-0.5,1.6l1,2.1c0,0,0,0,0,0c0.3,0.6,1,0.8,1.6,0.5c2-1,4.2-1.6,6.5-1.7c2,0,4.3,0.5,4.3,2.6c0,2.3-3,2.5-6.5,3
		c-3.3,0.5-8.6,1.5-8.6,7.4c0,4.8,3.4,7.5,8.4,7.5c3.4,0,5.4-1.2,6.9-3.1v1.4c0,0.7,0.5,1.2,1.2,1.2h3.1c0.7,0,1.2-0.5,1.2-1.2
		v-15.6C887,141.7,883,139.4,877.3,139.4 M881.2,155c0,3.6-2.6,5.2-5.4,5.2c-2.2,0-3.8-1-3.8-3.2c0-2.3,1.8-2.9,3.9-3.3
		c2.2-0.4,4.2-0.7,5.3-1.5V155z"/>
	<path style="clip-path:url(#SVGID_00000031200753187932598880000001150051991276243373_);" d="M901.5,149.1
		c-2.7-0.5-5.4-0.8-5.4-2.8c0-1.7,1.9-2.4,4.1-2.4c2.3,0,4.5,0.7,6.3,2c0.5,0.4,1.2,0.3,1.6-0.2l1.5-1.8c0,0,0,0,0.1-0.1
		c0.4-0.5,0.3-1.3-0.2-1.7c-2.6-2-5.8-3-9.1-3c-5.2,0-9.8,2.2-9.8,7.6c0,5.1,4.3,6.6,8.8,7.4c4.2,0.7,6,1.1,6,2.9
		c0,2-1.9,2.9-4.5,2.9c-2.5,0.1-4.9-0.7-6.9-2.2c-0.5-0.4-1.2-0.3-1.7,0.2l-1.6,1.9c0,0,0,0,0,0c-0.4,0.5-0.3,1.3,0.2,1.7
		c2.8,2.2,6.2,3.3,9.7,3.2c6.4,0,10.5-3.1,10.5-8.2C910.9,151.8,907.2,150.2,901.5,149.1"/>
	<path style="clip-path:url(#SVGID_00000031200753187932598880000001150051991276243373_);" d="M927.7,139.4
		c-2.9-0.1-5.7,1.3-7.4,3.6v-10.4c0-0.7-0.5-1.2-1.2-1.2h-3.4c-0.7,0-1.2,0.5-1.2,1.2V163c0,0.7,0.5,1.2,1.2,1.2h3.4
		c0.7,0,1.2-0.5,1.2-1.2v-12.5c0-3.7,2.4-5.9,5.5-5.9c3.3,0,4.1,2.3,4.1,4.9V163c0,0.7,0.5,1.2,1.2,1.2h3.4c0.7,0,1.2-0.5,1.2-1.2
		v-14.8C935.7,143,932.8,139.4,927.7,139.4"/>
	<path style="clip-path:url(#SVGID_00000031200753187932598880000001150051991276243373_);" d="M967.8,131.4h-5.6
		c-0.5,0-0.9,0.3-1.1,0.7l-11.3,30.4c-0.1,0.1-0.1,0.3-0.1,0.4c0,0.7,0.5,1.2,1.2,1.2h4c0.5,0,1-0.3,1.1-0.8l2.5-7.3h12.5l2.5,7.3
		c0.2,0.5,0.6,0.8,1.1,0.8h4.3c0.1,0,0.3,0,0.4-0.1c0.6-0.2,0.9-0.9,0.7-1.5l-11.2-30.4C968.8,131.7,968.3,131.4,967.8,131.4
		 M960.2,151l4.8-14.3l4.6,14.3H960.2z"/>
	<path style="clip-path:url(#SVGID_00000031200753187932598880000001150051991276243373_);" d="M996.3,139.4
		c-2.9-0.1-5.8,1.2-7.5,3.6v-1.9v-0.1c0-0.7-0.6-1.2-1.2-1.2h-3.4c-0.7,0-1.2,0.5-1.2,1.2V171c0,0.7,0.5,1.2,1.2,1.2h3.4
		c0.7,0,1.2-0.5,1.2-1.2v-9.9c1.7,2.4,4.5,3.8,7.5,3.7c6.6,0,10.9-5.5,10.9-12.7C1007.2,144.9,1002.9,139.4,996.3,139.4
		 M995.1,159.7c-4.1,0-6.2-3.4-6.2-7.6c0-4.2,2.2-7.5,6.2-7.5c4,0,6,3.4,6,7.5C1001.1,156.2,999.1,159.7,995.1,159.7"/>
	<path style="clip-path:url(#SVGID_00000031200753187932598880000001150051991276243373_);" d="M1035,152c0-7.2-4.3-12.6-10.9-12.6
		c-2.9-0.1-5.7,1.2-7.5,3.6v-1.9c0,0,0,0,0,0c0-0.7-0.5-1.2-1.2-1.2h-3.4h0c-0.7,0-1.2,0.5-1.2,1.2V171c0,0.7,0.5,1.2,1.2,1.2h3.4
		c0.7,0,1.2-0.5,1.2-1.2v-9.9c1.7,2.4,4.5,3.8,7.5,3.7C1030.7,164.7,1035,159.2,1035,152 M1022.9,159.7c-4.1,0-6.3-3.4-6.3-7.6
		c0-4.2,2.2-7.5,6.3-7.5c4,0,6,3.4,6,7.5C1028.9,156.2,1026.9,159.7,1022.9,159.7"/>
	<path style="clip-path:url(#SVGID_00000031200753187932598880000001150051991276243373_);fill:#48AD47;" d="M798.9,116.8
		c-3.5-1.1-6.7-1.1-13.2-1.1h-19.6c-6.5,0-9.7,0-13.2,1.1c-3.8,1.4-6.8,4.4-8.2,8.2c-1.1,3.5-1.1,6.7-1.1,13.2v19.6
		c0,6.5,0,9.7,1.1,13.2c1.4,3.8,4.4,6.8,8.2,8.2c3.5,1.1,6.7,1.1,13.2,1.1h19.6c6.5,0,9.7,0,13.2-1.1c3.8-1.4,6.8-4.4,8.2-8.2
		c1.1-3.5,1.1-6.7,1.1-13.2v-19.5c0-6.5,0-9.7-1.1-13.2C805.8,121.2,802.7,118.2,798.9,116.8 M790.5,137.5L788,140
		c-0.5,0.5-1.3,0.5-1.8,0c-2.4-2.1-5.5-3.2-8.7-3.2c-2.6,0-5.2,0.9-5.2,3.3c0,2.4,2.8,3.2,6,4.4c5.7,1.9,10.3,4.3,10.3,9.8
		c0,6-4.7,10.2-12.4,10.6l-0.7,3.2c-0.1,0.6-0.7,1-1.3,1h-4.8c-0.1,0-0.2,0-0.2,0c-0.7-0.1-1.2-0.9-1-1.6l0.7-3.4
		c-2.9-0.7-5.6-2.2-7.7-4.2c0,0,0,0,0,0c-0.5-0.5-0.5-1.3,0-1.8l2.7-2.6c0.5-0.5,1.3-0.5,1.8,0c2.5,2.3,5.7,3.6,9.1,3.6
		c3.5,0,5.9-1.5,5.9-3.8c0-2.3-2.4-3-6.9-4.6c-4.7-1.7-9.2-4.1-9.2-9.7c0-6.5,5.4-9.7,11.8-10l0.7-3.3c0.1-0.6,0.7-1,1.3-1h4.8
		c0.1,0,0.2,0,0.3,0c0.7,0.1,1.2,0.8,1,1.5l-0.7,3.7c2.4,0.8,4.7,2.1,6.7,3.7c0,0,0.1,0,0.1,0.1C791,136.2,791,137,790.5,137.5"/>
	<path style="clip-path:url(#SVGID_00000031200753187932598880000001150051991276243373_);fill:#8B8F91;" d="M404,184.2
		c-0.8,0.5-1.6,0.9-2.4,1.4v-21.5c1.7-1.7,3.2-3.5,4.6-5.3c7.1-9.5,6.3-24.3-1.6-33c-0.9-1-1.9-1.9-3-2.8V8.6h70.1
		c31.9,0,57.8,25.4,57.8,56.7c0,26.7-18.7,49-44,55.1l14.1,20c-0.3,0.3-0.6,0.5-0.8,0.8c-11.9,0.1-21.3,3.5-30.3,10.8l-0.3,0.2
		l-0.2,0.2c-1.2,1.1-2.3,2.1-3.5,3.1L453,137.7V91.8l9.5,0c15.1,0,27.3-11.2,27.3-25.1c0-13.9-11.4-25.1-26.5-25.1h-20.8v122
		c-1.8,0.3-3.5,0.6-6.3,1.3c-9.6,2.2-18.3,9-25.3,14.4c-3.8,3-4.9,3.7-5.2,3.9C405.1,183.5,404.5,183.9,404,184.2 M555.2,110.5
		l0.4-0.2l0.5-0.2c4.9-2.1,10.6-3.2,16.5-3.2c4.3,0,8.6,0.7,12.3,1.9V41.6h25.6c11.2,0,20.3,10.3,20.3,21.5
		c0,11.2-9.1,20.3-20.3,20.3h-13.3v31.1c1,0.7,2.1,1.4,3.4,2.3l0.4,0.3l1,0.8h19.7c13.6,0,23.9,11,23.9,24.6
		c-0.2,4.7-1.3,8.9-3.2,12.5c5.7,6.9,12.8,16.1,17,22.9l0.2,0.3c1.8,3.1,3.5,7.2,4.6,10.9c14.1-10.1,23.2-25.9,23.2-43.6
		c0-21.9-7.7-37.4-33.5-49.4c10.5-9.8,16.9-22.9,16.9-37.3c0-13.1-5-25.1-13.8-34.5c-9.1-10.1-25.3-15.7-47.2-15.7H544v108.7
		c1.1-0.7,2.3-1.4,3.5-2.2C549.9,113.6,552.4,111.9,555.2,110.5 M533.2,272.4c1.1,2.4,2.1,4.6,3.2,4.9c0.5,0.1,1,0.2,1.6,0.2
		c2.5,0,6.1-1.4,8.6-3.4c1.4-1.2,1-2,0.3-3.1c-0.2-0.3-0.4-0.7-0.7-1.2c-0.7-1.3-1.1-2.7-1.4-3.9c-0.7-2.5-1.3-4.6-3.9-4.2
		c-3.8,0.5-7.4,0.8-11.5,0.8c-0.1,0-1.3,0-1.7,0.9c-0.5,1,0.6,2,1.7,3c0.6,0.6,1.3,1.2,1.7,1.8C531.7,269.3,532.5,270.9,533.2,272.4
		 M344.2,280.7c-0.1,0-0.3,0-0.4,0.1c-2.2,0.9-4.7,3.7-4.8,5.4c-0.5,7.3-0.8,8.1-2.7,10.3c-0.6,0.6-0.9,2.1-0.3,2.7
		c0.6,0.6,7.7,2.8,8.5,2.8l0.2,0c0.6-0.2,1.2-1.8,2.6-6.9c0.8-2.7,1.7-5.8,2.7-8.6c0.1-0.2,0.1-0.4-0.6-1.4
		C348.6,283.9,345.8,280.7,344.2,280.7 M690.2,270.4c-0.1,0.7-0.6,1.2-1.4,1.3c-0.9,0.2-1.8,0.3-2.8,0.3c-7.3,0-15-5.8-18-11.2
		c-4-7.3-7.3-11.6-13.2-13.7l0,0c0.6,1.2,1.3,2.3,2.1,3.4c0.5,0.6,0.9,1.3,1.3,1.9c1.9,3.2,4.6,7.9,6,12.6c1.3,4.4,6,7.7,10.3,10.4
		l5.4,2.9c1.1,0.5,1.7,1.3,1.6,2c-0.1,0.6-0.3,1.1-1.3,1.4l-1,0.1c-0.4,0-0.7,0-1.1,0c-9.7,0-17.5-3.3-23.8-10.1
		c-1.9-2.1-3.8-3.2-5.7-3.2c-4.3,3.8-8.7,7.6-14.6,8c-7.3-1.2-13.4-0.8-18,1.2c-0.8,0.3-1.5,0.5-2.3,0.8c-4.2,1.5-8.5,3.1-13.3,3.3
		c-2.6,0-5.9-1.3-6.8-3.9c-0.3-1.1-0.2-2.1-0.6-3.4c-0.6-2.3-1.1-4.7,0.2-6.9l3.6-5.4c0-0.5-0.4-0.9-0.9-1c-0.5-0.1-1.1,0.2-1.7,0.4
		c-0.6,0.2-1.1,0.5-1.6,0.5c-1.6-0.1-1.5-1.6-1.5-1.6c0.2-4.2,3.6-7.5,6.8-10.4c0.9-0.8,1.8-1.6,2.6-2.5c0.9-4.6,2.7-8.4,5.6-11.7
		c-0.1-0.3-0.3-0.6-0.7-0.8c-1.1,0.2-2.2,0.4-3.3,0.6c-3.5,0.7-7.1,1.3-10.9,1.3c-5,2.6-11.9,3.4-13.8,2.1c0,0-0.8-0.6-0.9-1.3
		c-0.1-0.7,0.1-1.5,0.3-1.9c4.9-6.8,6.8-15.4,5.4-23.6c-0.1-0.7-0.4-0.9-0.8-0.9c-0.6,0-0.8,0.7-0.9,1.1c-1.5,8.6-3.9,14.9-7.8,20.9
		c-1.3,2-4.9,2.8-8.4,3.5c-1.5,0.3-2.8,0.5-4.3,1.1c-0.8,0.3-1.9,1.1-1.9,2.3c-0.1,2.5,1.2,4.7,2.5,6.7l0.2,0.2
		c0.3,0.6,8.6,14.2,8.9,17c0.3,2.4-0.8,9.8-1.8,12.9c-0.3,1.1,0.2,1.2,0.3,1.2c0.2,0,0.5-0.1,0.9-0.4c1.4-1,6.3-8.5,6.7-10.8
		c0.4-2.3-0.3-3.8-1-5.3l-9.8-19.4l0.1-0.2c0.5-1,1.8-1.6,3.6-1.7l0.2,0c1.6,0,3,0.5,4.3,1.1c0.6,0.2,1.3,0.5,1.9,0.7l0.2,0l0.1,0.2
		c2.2,5.9,3.2,8.2,8.6,16.9c1.8,2.9,1.8,6.6,0,10.3c-2,4.2-4.4,8.2-7.1,12.1c-2.2,2.3-5.2,2.5-8.1,2.7c-0.6,0-1.3,0.1-1.9,0.2
		l-2.8,0c-8.5,4.5-17.4,7.5-26.6,10.4c-1.3,0.4-2.6,0.6-4,0.6c-3.2,0-6.2-1.1-8.3-2.9c-2.3-1.8-3.7-4.3-5-6.7c-0.5-1-1.1-2-1.7-2.9
		c-0.7-0.9-1.9-1.3-3.6-1.3c-0.6,0-1.2,0-1.7,0.1c-0.5,0-1,0.1-1.5,0.1c-0.8,0-1.9-0.1-2.4-0.9l-0.9-1.5c-2-3.4-4-6.7-6-10.2
		c-0.5-0.8-0.5-1.8-0.2-2.5c0.3-0.7,0.9-1.1,1.7-1.3c3.8-0.8,7.1-1.5,10.6-1.8c3.6-0.3,6.3,0.6,8.4,3c1.6,1.8,2.8,3.9,4,5.9
		c2.2,3.7,1.8,4.8,5.3,8c0.1,0.1,2,1.5,4.2,1.7c3.3,0.2,8.9-2,12.4-3.7c2.2-1.3,5.2-3.5,5.2-6.6c-0.4-6.8-5.5-11.7-9.7-14.7
		c-6.6-3.4-11.9-7.6-15.3-11.9c-1.6-2.2-2.4-4.9-3.1-7.4c-0.2-0.6-0.3-1.2-0.5-1.8c-0.1-0.4-0.5-0.5-0.8-0.5c-0.3,0-0.7,0.1-0.9,0.3
		c-1.7,1.5-0.7,4.6,0,6.7c0.1,0.3,0.2,0.6,0.3,0.9l0.1,0.3c0.5,1.6,0.8,2.8-0.2,3.7c-1.5,1.2-3.5,1.8-6.3,1.8
		c-1.2,0-2.4-0.1-3.6-0.2c-0.7-0.1-1.3-0.1-1.9-0.1c-3.4-0.2-6.7-0.8-9.8-1.5c-3.6-0.7-7.4-1.5-11.3-1.5c-0.9,0-1.7,0-2.5,0.1
		c-2,0.1-4.3,0.5-6.7,0.8c-3.1,0.5-6.4,1-9.3,1c-4.9,0-8-1.5-9.4-4.6c-3.1-7.8-1.5-17.1-0.2-23.9c0-0.7-0.9-1-1.3-1.1
		c-0.2-0.1-0.3-0.1-0.4-0.1c-0.4,0-0.8,0.2-1,0.7c-0.9,3.3-1.4,6.8-1.9,10.3c-0.6,4.3-1.3,8.8-2.7,13c-2.1,6.4-7.4,14.5-14.6,18.1
		c-5.6,2.9-12,4.4-20.9,5c-12,0.2-26.8,2-35.5,14.4c-0.6,1.1-0.7,1.4-0.9,2.3c-0.1,0.4-0.1,0.8,0.1,1c0.3,0.4,0.9,0.3,1.3-0.1
		c8.2-9.2,19.4-13.9,33.3-13.9c0.8,0,1.5,0,2.3,0c11.2,0,25.2-1.5,33.8-13.2c2.1-2.4,5.3-7.7,5.3-7.7l0.2-0.3l4.9,3.7l-0.1,0.2
		c0,0.1-2.1,5.4-3.4,7.8c-1.3,2.6-4.9,9-9,11.3c-1,0.5-2.2,1.2-3.5,1.9c-2.4,1.2-5.3,2.8-8.2,4.4c-2.4,1.4-5.4,2.1-8.5,2.1
		c-1.8,0-3.6-0.2-5.4-0.7c-3.3-0.6-7.5-1.4-11.4-1.4c-3.2,0-5.7,0.5-7.9,1.5c-1.7,1.1-3.4,2.6-5,4.1c-1,1-2.1,1.9-3.1,2.8
		c-2.4,1.9-7.4,5.2-12.6,4.9c-1.1-0.1-2.2-0.4-3.2-0.6c-1.2-0.3-2.4-0.6-3.5-0.6c-1.3,0-2.2,0.4-3,1.3c-1.4,1.3-2.4,3-3.3,4.7
		c-1.5,2.5-3,5.1-5.8,6.4c-1.6,0.9-3.4,1.3-5.5,1.3c-2.2,0-4.5-0.5-6.6-1c-1.7-0.4-3.2-0.7-4.8-0.8l-0.4,0l0.1-0.6
		c0.1-0.7,0.3-1.3,0.4-2c0.9-4.4,1.9-8.9,4.8-12.3l0.1-0.1l0.1,0c1.9-0.2,3.9-0.6,5.5-2c2-1.8,3.6-4.1,5.1-6.6l0.1-0.1
		c0.9-0.6,1.9-1.1,2.8-1.7c3.8-2.2,7.7-4.5,10.1-8.3c0.8-1.8,1.7-3.9,2.5-5.9c1.3-3.4,2.5-6.3,3.5-7.4c0.6-0.6,1.2-0.9,2.1-1
		c0.4,0,1-0.1,1.9-0.1c1.7-0.1,4.1-0.2,6.3-0.5c1.4-0.2,8.8-2.8,12.5-6.2c1-1,1.5-2.7,1-4.2c-0.1-0.5-0.5-1.4-1-2.5
		c-1.1-2.7-2.8-6.9-3.5-10.3c-0.3-1.5-0.5-5.2-0.6-9c-0.1-2.4-0.2-4.8-0.4-7c-0.1-1.1-0.5-1.1-0.7-1.1c-0.1,0-0.3,0-0.5,0.1
		c-4.8,1.2-9.8,2.5-15.1,2.5c-1.7,0-3.2-0.1-4.8-0.4c-8.9-1.1-19.6-7-23.5-17.4c-3-7.9-2.7-20.1,3.8-27.2c4.9-6,10.8-10.9,16.6-15.7
		c1.1-0.9,2.3-1.9,3.4-2.8c1.2-1,1.7-1.7,1.6-2.7c-0.2-1.6-1.5-2.9-2.8-3.3c-1.4-0.4-3-0.4-4.3-0.4c-0.5,0-0.9,0-1.4,0
		c-0.5,0-0.9,0-1.4,0c-2.1,0-4.3-0.1-6.5-1c-0.3-0.1-0.6-0.2-0.9-0.3c-6.7-3.1-12.8-10.6-13.7-17.9c-0.2-3.5,0.4-6.6,2.2-9.4
		c4.8,2.6,9,6.8,14.5,8.3c2.1,0.5,4.2,0.8,6.4,1.3c0.3,0.1,0.9,0.1,1.3,0.2l0.6,0.1c3.4,0.8,12.6,3.1,16.7,7.6
		c4.1,4.5,4.5,12.8,0.9,17.7c-3.1,4.2-7.7,8.1-12.5,12.1c-3,2.5-6,5.1-8.7,7.8c-5.7,5.7-7.8,13-5.8,20.2c2.1,6.4,8.5,11.2,15.5,11.7
		c0.2,0,0.5,0,0.7,0c9.4,0,16.7-4.3,24.4-8.8c0.7-0.4,1.5-0.9,2.1-1.3c1.3-0.8,4-2.9,6.1-4.5c6.2-4.9,13.6-10.6,20.5-12.2
		c4.6-1.1,5.4-1.1,10.2-1.6c3.4-0.3,6.6-0.7,9.5-1.7c6.4-2.2,12-7,17.5-12c7-5.7,13.8-8.1,23.3-8.1c4.1,0,4.7-0.5,9.7-5.2
		c1.1-1,2.4-2.2,4-3.7c5.4-5,12.3-7.1,19-9.2c3.4-1.1,6.9-2.1,10.2-3.6c4.2-1.4,8.1-3.9,11.8-6.3c2.2-1.4,4.5-2.9,6.8-4.1
		c3.4-1.5,7.5-2.3,11.7-2.3c3.3,0,6.5,0.5,9.2,1.5c4.2,1.5,6,2.3,11.8,6.3l29.3,24.3l0.4,0.4c0.5,0.5,1.2,1.1,1.7,1.7
		c0.9,0.9,17.2,19.9,24,31c2.2,3.7,4,9.4,4.2,12.1c1.3,17.1,6.5,32.5,11.3,45.5c0.2,0.5,1.2,1.4,2.3,2.4c1.3,1.1,2.7,2.4,3.6,3.7
		c1.3,1.8,2.5,3.8,3.6,5.7c2.9,4.9,6,10,11.2,13c0,0,2.4,1.2,4.4,2.2C690.2,269.3,690.3,269.8,690.2,270.4 M583.5,163
		c-1.5-3-3-4.9-4.5-5.6c-0.4-0.2-0.9-0.3-1.4-0.3c-1,0-2,0.4-2.3,1c-1.3,2.1-0.1,3.6,1.2,5.4c0.6,0.9,1.3,1.8,1.9,3
		c1.8,3.6,2.7,7.5,4.2,15.3c0.1,0.7,0.6,0.8,0.7,0.8c0.4,0,0.7-0.4,0.9-0.9C584.3,181.6,587.3,170.7,583.5,163 M632.8,254.9
		c-1.4-0.7-2.9-0.2-2.9-0.2c-4.6,1.2-6.9,6-7.2,6.5c0,0-0.7,1.3-0.3,2c0.4,0.6,1.1,0.9,3.1,1c2,0.1,5.7-0.4,6.7-1.4
		c1-0.9,1.3-3.2,1.3-3.2C633.5,259.2,634.2,255.6,632.8,254.9 M646.6,222.8c-0.5-2.3-2.5-6.1-4.3-8c-1.8-1.9-2.4-2.9-3-3.9
		c-0.6-1-0.1-0.7-2.3-3.4c-1.9-2.3-3.6-2.1-4.1-2.1c0,0-2-0.1-3.5,2.1c-0.6,0.8-2,4.2-2,4.2c-0.7,1.7-1.3,2.2-1.9,4.7
		c-0.6,2.4-0.4,3.4-0.1,4.7c0.2,1.3,0.9,1.4,1.4,1.1c0.5-0.3,0.5-0.6,2.1-2.7c1.4-1.8,3.2-2.9,3.9-2.9c2.8-0.3,7.6,6,8.6,8.2
		c0.9,2,1.1,6.8,1.1,6.8c0,0.2-0.1,2,1.4,2c1.3,0,1.8-1,2-1.4c0.2-0.4,0.7-1.3,1-3.1C647.1,227.1,647.2,225.1,646.6,222.8
		 M352.2,280.5c0.6,0.5,1.4,1.1,2.7,1.1c0.7,0,1.5-0.2,2.2-0.6c4.1-2,8.3-9.6,8.4-10c0.4-1.2-1-2.3-2.7-3.7l-0.2-0.2
		c-0.8-0.6-2.2-0.5-3.1,0.1c-0.7,0.4-1.3,0.9-2,1.3c-2.1,1.4-4.3,2.8-6.6,4.8c-0.8,0.7-1.3,2-1.4,3c-0.1,0.8,0.1,1.5,0.4,1.9
		C350.2,278.4,351.8,280.2,352.2,280.5 M399.9,341.1h2.4v-6.5h6.4v-2.1h-6.4v-4.7h6.6v-2.2h-9.1V341.1z M425.4,340.8
		c1-0.4,1.8-1,2.6-1.7c0.7-0.7,1.3-1.6,1.7-2.6c0.4-1,0.6-2,0.6-3.2c0-1.1-0.2-2.2-0.6-3.2c-0.4-1-1-1.8-1.7-2.5
		c-0.7-0.7-1.6-1.3-2.6-1.7c-1-0.4-2.1-0.6-3.2-0.6c-1.2,0-2.3,0.2-3.2,0.6c-1,0.4-1.8,1-2.6,1.7c-0.7,0.7-1.3,1.6-1.7,2.5
		c-0.4,1-0.6,2-0.6,3.2c0,1.1,0.2,2.2,0.6,3.2c0.4,1,1,1.8,1.7,2.6c0.7,0.7,1.6,1.3,2.6,1.7c1,0.4,2.1,0.6,3.2,0.6
		C423.3,341.4,424.4,341.2,425.4,340.8 M419.9,338.7c-0.7-0.3-1.3-0.7-1.8-1.2c-0.5-0.5-0.9-1.1-1.2-1.8c-0.3-0.7-0.4-1.5-0.4-2.3
		s0.1-1.6,0.4-2.3c0.3-0.7,0.7-1.3,1.2-1.8c0.5-0.5,1.1-0.9,1.8-1.2c0.7-0.3,1.4-0.4,2.3-0.4c0.8,0,1.5,0.1,2.2,0.4
		c0.7,0.3,1.3,0.7,1.8,1.2c0.5,0.5,0.9,1.1,1.2,1.8c0.3,0.7,0.4,1.5,0.4,2.3s-0.1,1.6-0.4,2.3c-0.3,0.7-0.7,1.3-1.2,1.8
		c-0.5,0.5-1.1,0.9-1.8,1.2c-0.7,0.3-1.4,0.4-2.2,0.4C421.3,339.2,420.6,339,419.9,338.7 M436.6,341.1h2.4v-6.1h2.1l3.9,6.1h2.8
		l-4.1-6.3c1-0.3,1.7-0.9,2.3-1.7c0.5-0.8,0.8-1.7,0.8-2.8c0-1.5-0.5-2.6-1.4-3.4c-0.9-0.8-2.2-1.3-3.8-1.3h-5.1V341.1z M439,333
		v-5.3h2.6c0.9,0,1.5,0.2,2,0.7c0.5,0.5,0.7,1.1,0.7,1.9c0,0.8-0.2,1.5-0.7,2c-0.5,0.5-1.2,0.7-2,0.7H439z M466,325.6l-4.5,12.4
		l-4.5-12.4h-3.3l0,15.5h2.3v-11.9l4.4,11.9h2.1l4.4-11.9v11.9h2.4v-15.5H466z M485,341c0.7-0.3,1.4-0.7,1.9-1.3
		c0.5-0.5,0.9-1.2,1.2-2c0.3-0.8,0.4-1.7,0.4-2.6v-9.5H486v9.5c0,1.3-0.3,2.3-0.9,3c-0.6,0.7-1.5,1.1-2.6,1.1c-1.1,0-2-0.4-2.6-1.1
		c-0.6-0.7-0.9-1.7-0.9-3v-9.5h-2.4v9.5c0,1,0.1,1.8,0.4,2.6c0.3,0.8,0.7,1.5,1.2,2c0.5,0.5,1.2,1,1.9,1.3c0.7,0.3,1.6,0.5,2.5,0.5
		C483.4,341.4,484.2,341.3,485,341 M495.6,341.1h8.5v-2.2H498v-13.3h-2.4V341.1z M519.9,341.1h2.6l-5.8-15.5h-2.6l-5.9,15.5h2.6
		l1.3-3.7h6.5L519.9,341.1z M515.4,328.1l2.6,7.4h-5.2L515.4,328.1z M548.3,340.8c1-0.4,1.8-1,2.6-1.7c0.7-0.7,1.3-1.6,1.7-2.6
		c0.4-1,0.6-2,0.6-3.2c0-1.1-0.2-2.2-0.6-3.2c-0.4-1-1-1.8-1.7-2.5c-0.7-0.7-1.6-1.3-2.6-1.7c-1-0.4-2.1-0.6-3.2-0.6
		c-1.2,0-2.3,0.2-3.2,0.6c-1,0.4-1.8,1-2.6,1.7c-0.7,0.7-1.3,1.6-1.7,2.5c-0.4,1-0.6,2-0.6,3.2c0,1.1,0.2,2.2,0.6,3.2
		c0.4,1,1,1.8,1.7,2.6c0.7,0.7,1.6,1.3,2.6,1.7c1,0.4,2.1,0.6,3.2,0.6C546.2,341.4,547.3,341.2,548.3,340.8 M542.8,338.7
		c-0.7-0.3-1.3-0.7-1.8-1.2c-0.5-0.5-0.9-1.1-1.2-1.8c-0.3-0.7-0.4-1.5-0.4-2.3s0.1-1.6,0.4-2.3c0.3-0.7,0.7-1.3,1.2-1.8
		c0.5-0.5,1.1-0.9,1.8-1.2c0.7-0.3,1.4-0.4,2.3-0.4c0.8,0,1.5,0.1,2.2,0.4c0.7,0.3,1.3,0.7,1.8,1.2c0.5,0.5,0.9,1.1,1.2,1.8
		c0.3,0.7,0.4,1.5,0.4,2.3s-0.1,1.6-0.4,2.3c-0.3,0.7-0.7,1.3-1.2,1.8c-0.5,0.5-1.1,0.9-1.8,1.2c-0.7,0.3-1.4,0.4-2.2,0.4
		C544.3,339.2,543.5,339,542.8,338.7 M569,325.6v11.5l-6.9-11.5h-2.7v15.5h2.4v-11.7l7,11.7h2.6v-15.5H569z M578.7,341.1h9.4V339h-7
		v-4.9h6.5V332h-6.5v-4.3h6.7v-2.1h-9.1V341.1z M607,341.1h2.4v-13.3h4.6v-2.2h-11.4v2.2h4.4V341.1z M620.1,341.1h9.4V339h-7v-4.9
		h6.5V332h-6.5v-4.3h6.7v-2.1h-9.1V341.1z M646.1,341.1h2.6l-5.8-15.5h-2.6l-5.9,15.5h2.6l1.3-3.7h6.5L646.1,341.1z M641.5,328.1
		l2.6,7.4H639L641.5,328.1z M666.8,325.6l-4.5,12.4l-4.5-12.4h-3.3l0,15.5h2.3v-11.9l4.4,11.9h2.1l4.4-11.9v11.9h2.4v-15.5H666.8z"
		/>
</g>
</svg>
