<?xml version="1.0" standalone="no"?>
<!DOCTYPE svg PUBLIC "-//W3C//DTD SVG 20010904//EN"
 "http://www.w3.org/TR/2001/REC-SVG-20010904/DTD/svg10.dtd">
<svg version="1.0" xmlns="http://www.w3.org/2000/svg"
 width="603.000000pt" height="394.000000pt" viewBox="0 0 603.000000 394.000000"
 preserveAspectRatio="xMidYMid meet">

<g transform="translate(0.000000,394.000000) scale(0.100000,-0.100000)"
fill="#000000" stroke="none">
<path d="M1565 3310 c-104 -12 -243 -53 -319 -93 -175 -92 -274 -276 -264
-488 5 -110 37 -180 122 -264 84 -84 156 -128 412 -256 234 -116 323 -176 361
-244 57 -100 -1 -282 -119 -376 -138 -109 -365 -161 -469 -109 -62 32 -81 71
-76 155 7 122 85 230 211 292 67 33 71 50 21 100 l-35 35 -83 -4 c-60 -3 -96
-11 -132 -28 -136 -66 -218 -224 -219 -420 0 -118 23 -180 94 -243 73 -66 130
-82 285 -82 149 1 255 20 387 69 120 45 191 89 273 171 107 107 155 220 155
365 -1 189 -96 277 -560 515 -314 162 -382 237 -360 399 32 226 198 347 475
349 83 1 109 -3 150 -22 60 -27 91 -54 116 -103 40 -78 19 -148 -73 -243 l-58
-59 25 -25 c33 -34 143 -42 210 -16 60 23 121 93 141 163 22 74 15 192 -13
247 -46 89 -155 165 -288 200 -74 19 -262 27 -370 15z"/>
<path d="M2721 2994 c-55 -17 -103 -53 -131 -99 -12 -19 -40 -105 -63 -191
l-42 -157 -209 -72 c-116 -39 -211 -76 -214 -83 -6 -18 48 -120 75 -142 36
-28 72 -25 188 14 55 19 101 33 101 32 1 0 -13 -66 -32 -146 -71 -302 -74
-393 -18 -459 68 -81 241 -72 420 23 l65 34 47 -48 c94 -96 228 -91 365 14 27
21 50 36 51 34 37 -61 61 -88 89 -101 67 -32 117 -17 180 52 20 23 39 41 42
41 3 0 5 -12 5 -28 0 -84 109 -113 224 -60 32 14 33 20 40 179 6 134 22 264
37 289 6 12 8 10 9 -8 0 -40 30 -174 57 -257 82 -256 232 -423 438 -488 89
-28 285 -30 382 -4 76 20 150 57 180 89 42 45 65 124 44 157 -7 11 -22 4 -72
-31 -98 -68 -166 -92 -294 -104 -130 -12 -243 33 -335 132 -63 70 -113 158
-156 279 -29 82 -74 267 -74 307 0 7 33 38 72 68 122 92 272 226 301 267 47
68 28 115 -57 143 l-32 10 -150 -148 c-129 -129 -230 -212 -255 -212 -10 0 1
41 67 243 57 178 84 303 76 355 -9 63 -86 101 -177 88 -38 -6 -46 -11 -51 -34
-3 -15 -50 -206 -105 -424 -55 -219 -111 -450 -125 -515 -26 -122 -61 -189
-119 -227 -90 -59 -109 47 -55 307 34 166 36 203 14 235 -12 18 -25 22 -68 22
-45 0 -56 4 -82 31 -27 29 -32 31 -88 26 -91 -8 -189 -61 -269 -146 -82 -87
-132 -185 -155 -306 l-18 -90 -65 -38 c-169 -99 -223 -65 -184 117 23 111 97
389 104 398 4 4 65 21 136 37 127 29 131 30 168 73 22 23 50 62 64 86 24 41
25 44 8 62 -23 26 -74 26 -206 0 -57 -11 -104 -18 -106 -16 -2 1 17 88 42 192
25 104 45 195 45 202 0 16 -71 14 -129 -4z m624 -776 c-21 -234 -72 -364 -161
-408 -56 -27 -88 -26 -113 6 -25 32 -26 63 -5 135 37 125 143 277 223 319 60
32 63 29 56 -52z"/>
<path d="M4739 2410 c-159 -48 -320 -222 -359 -389 -23 -97 3 -216 64 -296 33
-43 115 -85 189 -96 115 -18 269 31 361 116 41 38 45 65 16 113 -24 39 -48 41
-81 6 -60 -65 -191 -100 -262 -70 -43 17 -70 67 -65 120 l3 31 75 2 c222 7
368 127 370 303 0 73 -23 110 -91 144 -43 21 -66 26 -123 25 -39 0 -83 -4 -97
-9z m159 -133 c4 -43 -30 -124 -72 -174 -50 -59 -196 -111 -196 -69 0 27 71
154 112 201 51 58 95 86 128 83 21 -3 25 -9 28 -41z"/>
<path d="M2265 975 c-14 -13 -25 -31 -25 -38 0 -27 35 -59 65 -59 30 0 65 32
65 59 0 19 -45 63 -65 63 -9 0 -27 -11 -40 -25z m75 -5 c23 -23 25 -39 7 -64
-27 -36 -97 -14 -97 31 0 18 37 53 55 53 8 0 24 -9 35 -20z"/>
<path d="M2281 933 c1 -21 3 -30 6 -20 4 17 6 17 22 3 17 -15 18 -14 19 19 1
31 -1 35 -23 35 -22 0 -25 -4 -24 -37z m39 17 c0 -5 -7 -10 -15 -10 -8 0 -15
5 -15 10 0 6 7 10 15 10 8 0 15 -4 15 -10z"/>
<path d="M1627 984 c-4 -4 -7 -88 -7 -186 l0 -178 35 0 35 0 0 75 0 74 87 3
87 3 3 32 4 32 -88 3 -88 3 -3 33 -3 32 91 0 91 0 -3 38 -3 37 -116 3 c-63 1
-118 -1 -122 -4z"/>
<path d="M2103 981 c-5 -3 -29 -27 -53 -54 l-43 -48 23 -24 c22 -23 25 -24 42
-8 17 15 18 12 18 -106 l0 -122 38 3 37 3 0 180 0 180 -27 1 c-15 1 -31 -2
-35 -5z"/>
<path d="M2663 975 c-2 -8 -3 -24 -1 -37 3 -20 9 -23 56 -26 l52 -3 0 -145 0
-144 35 0 35 0 0 145 0 145 56 0 55 0 -3 38 -3 37 -138 1 c-106 1 -140 -1
-144 -11z"/>
<path d="M3127 983 c-4 -3 -7 -87 -7 -185 l0 -178 125 0 125 0 0 35 0 35 -85
0 -85 0 0 40 0 40 85 0 85 0 0 35 0 35 -85 0 -85 0 0 35 0 35 85 0 85 0 0 40
0 40 -118 0 c-65 0 -122 -3 -125 -7z"/>
<path d="M3673 978 c-9 -12 -143 -342 -143 -353 0 -3 18 -5 40 -5 36 0 41 3
54 35 l15 35 73 0 74 0 13 -35 c11 -32 16 -35 52 -35 21 0 39 3 39 8 0 11
-132 335 -143 350 -5 6 -22 12 -37 12 -15 0 -32 -6 -37 -12z m56 -145 c8 -21
16 -44 18 -50 4 -9 -7 -13 -37 -13 -29 0 -40 4 -36 13 2 6 10 29 17 50 7 20
15 37 19 37 3 0 12 -17 19 -37z"/>
<path d="M4055 978 c-3 -8 -4 -90 -3 -183 l3 -170 37 -3 37 -3 3 98 3 97 39
-97 c33 -85 41 -98 60 -95 16 2 29 22 56 90 19 48 38 88 43 88 4 0 7 -40 7
-90 l0 -90 35 0 35 0 -2 183 -3 182 -40 0 -40 0 -32 -74 c-17 -41 -38 -90 -45
-110 l-14 -35 -45 109 -46 109 -41 4 c-29 2 -44 -1 -47 -10z"/>
</g>
</svg>
